<svg width="80" height="80" viewBox="0 0 80 80" fill="none" xmlns="http://www.w3.org/2000/svg">
  
  <rect width="80" height="80" rx="6" fill="#1c1c1c"></rect>
  
  <line x1="10" y1="40" x2="70" y2="40" stroke="#323232" stroke-width="1"></line>
  <line x1="40" y1="10" x2="40" y2="70" stroke="#323232" stroke-width="1"></line>
  <line x1="10" y1="25" x2="70" y2="25" stroke="#262626" stroke-width="0.5"></line>
  <line x1="10" y1="55" x2="70" y2="55" stroke="#262626" stroke-width="0.5"></line>
  <line x1="25" y1="10" x2="25" y2="70" stroke="#262626" stroke-width="0.5"></line>
  <line x1="55" y1="10" x2="55" y2="70" stroke="#262626" stroke-width="0.5"></line>
  
  <polyline points="10,40 13,33 16,27 19,24 22,24 25,27 28,33 31,40 34,47 37,53 40,56 43,56 46,53 49,47 52,40 55,33 58,27 61,24 64,24 67,27 70,33" stroke="#00a0ff" stroke-width="1.8" fill="none" stroke-linejoin="round" stroke-linecap="round"></polyline>
  
  <polyline points="10,55 16,52 22,47 28,40 34,34 40,30 46,28 52,29 58,32 64,37 70,43" stroke="#ff5050" stroke-width="1.8" fill="none" stroke-linejoin="round" stroke-linecap="round"></polyline>
</svg>