<svg viewBox="0 0 200 56" xmlns="http://www.w3.org/2000/svg" role="img" aria-label="CalcSci wordmark">
  
  <rect width="44" height="52" rx="5" fill="#1c1c1c"></rect>
  <rect x="4" y="4" width="36" height="13" rx="2" fill="#141414"></rect>
  <rect x="14" y="13" width="22" height="2.5" rx="1.25" fill="#0067c0"></rect>
  
  <rect x="4" y="21" width="8" height="5" rx="0.8" fill="#263241"></rect>
  <rect x="14" y="21" width="8" height="5" rx="0.8" fill="#263241"></rect>
  <rect x="24" y="21" width="8" height="5" rx="0.8" fill="#263241"></rect>
  <rect x="34" y="21" width="6" height="5" rx="0.8" fill="#263241"></rect>
  
  <rect x="4" y="28" width="8" height="5" rx="0.8" fill="#323232"></rect>
  <rect x="14" y="28" width="8" height="5" rx="0.8" fill="#323232"></rect>
  <rect x="24" y="28" width="8" height="5" rx="0.8" fill="#323232"></rect>
  <rect x="34" y="28" width="6" height="12" rx="0.8" fill="#0067c0"></rect>
  
  <rect x="4" y="35" width="18" height="5" rx="0.8" fill="#323232"></rect>
  <rect x="24" y="35" width="8" height="5" rx="0.8" fill="#323232"></rect>

  
  
  <text x="54" y="30" font-family="&#39;DM Sans&#39;, &#39;Segoe UI&#39;, sans-serif" font-size="24" font-weight="300" letter-spacing="-0.5" fill="#ffffff">Calc</text>
  <text x="107" y="30" font-family="&#39;DM Sans&#39;, &#39;Segoe UI&#39;, sans-serif" font-size="24" font-weight="600" letter-spacing="-0.5" fill="#0067c0">Sci</text>
  
  <text x="54" y="44" font-family="&#39;DM Sans&#39;, &#39;Segoe UI&#39;, sans-serif" font-size="9" font-weight="400" letter-spacing="2" fill="#a0a0a0">CALCULADORA CIENTÍFICA</text>
</svg>