<svg viewBox="0 0 56 64" xmlns="http://www.w3.org/2000/svg" role="img" aria-label="CalcSci logo">
  
  <rect width="56" height="64" rx="7" fill="#1c1c1c"></rect>
  
  <rect x="5" y="5" width="46" height="17" rx="2" fill="#141414"></rect>
  
  <rect x="31" y="11" width="16" height="2" rx="1" fill="#a0a0a0" opacity="0.45"></rect>
  
  <rect x="18" y="16" width="29" height="3" rx="1.5" fill="#0067c0"></rect>

  
  <rect x="5" y="27" width="10" height="7" rx="1" fill="#263241"></rect>
  <rect x="17" y="27" width="10" height="7" rx="1" fill="#263241"></rect>
  <rect x="29" y="27" width="10" height="7" rx="1" fill="#263241"></rect>
  <rect x="41" y="27" width="10" height="7" rx="1" fill="#263241"></rect>

  
  <rect x="5" y="36" width="10" height="7" rx="1" fill="#32263c"></rect>
  <rect x="17" y="36" width="10" height="7" rx="1" fill="#32263c"></rect>
  <rect x="29" y="36" width="10" height="7" rx="1" fill="#32263c"></rect>
  <rect x="41" y="36" width="10" height="7" rx="1" fill="#32263c"></rect>

  
  <rect x="5" y="45" width="10" height="7" rx="1" fill="#323232"></rect>
  <rect x="17" y="45" width="10" height="7" rx="1" fill="#323232"></rect>
  <rect x="29" y="45" width="10" height="7" rx="1" fill="#323232"></rect>
  <rect x="41" y="45" width="10" height="7" rx="1" fill="#2d3749"></rect>

  
  <rect x="5" y="54" width="22" height="5" rx="1" fill="#323232"></rect>
  <rect x="29" y="54" width="10" height="5" rx="1" fill="#323232"></rect>
  
  <rect x="41" y="45" width="10" height="14" rx="1" fill="#0067c0"></rect>
</svg>