<svg width="80" height="96" viewBox="0 0 80 96" fill="none" xmlns="http://www.w3.org/2000/svg">
  
  <rect x="2" y="2" width="76" height="92" rx="7" fill="#1c1c1c"></rect>
  <rect x="2" y="2" width="76" height="92" rx="7" stroke="#3a3a3a" stroke-width="1.5"></rect>
  
  <rect x="10" y="10" width="60" height="22" rx="2" fill="#141414"></rect>
  
  <rect x="48" y="16" width="16" height="10" rx="1" fill="#0f1a2a"></rect>
  <line x1="52" y1="21" x2="60" y2="21" stroke="#00a0ff" stroke-width="1.5" stroke-linecap="round"></line>
  
  <rect x="10" y="38" width="13" height="10" rx="1" fill="#3e2828"></rect>
  <rect x="25" y="38" width="13" height="10" rx="1" fill="#3e2828"></rect>
  <rect x="40" y="38" width="13" height="10" rx="1" fill="#3e2828"></rect>
  <rect x="57" y="38" width="13" height="10" rx="1" fill="#2d374b"></rect>
  
  <rect x="10" y="51" width="13" height="10" rx="1" fill="#323232"></rect>
  <rect x="25" y="51" width="13" height="10" rx="1" fill="#323232"></rect>
  <rect x="40" y="51" width="13" height="10" rx="1" fill="#323232"></rect>
  <rect x="57" y="51" width="13" height="10" rx="1" fill="#2d374b"></rect>
  
  <rect x="10" y="64" width="13" height="10" rx="1" fill="#323232"></rect>
  <rect x="25" y="64" width="13" height="10" rx="1" fill="#323232"></rect>
  <rect x="40" y="64" width="13" height="10" rx="1" fill="#323232"></rect>
  
  <rect x="57" y="64" width="13" height="23" rx="1" fill="#0067c0"></rect>
  
  <rect x="10" y="77" width="28" height="10" rx="1" fill="#323232"></rect>
  <rect x="40" y="77" width="13" height="10" rx="1" fill="#323232"></rect>
</svg>